<svg width="82" height="89" viewBox="0 0 82 89" fill="none" xmlns="http://www.w3.org/2000/svg">
<g filter="url(#filter0_d_19835_173)">
<path fill-rule="evenodd" clip-rule="evenodd" d="M41 70C53.1503 70 63 60.1503 63 48C63 35.8497 53.1503 26 41 26C28.8497 26 19 35.8497 19 48C19 60.1503 28.8497 70 41 70Z" fill="black" fill-opacity="0.01"/>
</g>
<g filter="url(#filter1_d_19835_173)">
<path fill-rule="evenodd" clip-rule="evenodd" d="M41 70C57.5685 70 71 56.5685 71 40C71 23.4315 57.5685 10 41 10C24.4315 10 11 23.4315 11 40C11 56.5685 24.4315 70 41 70Z" fill="#79C4FF"/>
<path d="M69 40C69 55.464 56.464 68 41 68C25.536 68 13 55.464 13 40C13 24.536 25.536 12 41 12C56.464 12 69 24.536 69 40Z" stroke="#9AD2FF" stroke-width="4"/>
</g>
<mask id="mask0_19835_173" style="mask-type:luminance" maskUnits="userSpaceOnUse" x="11" y="10" width="60" height="60">
<path fill-rule="evenodd" clip-rule="evenodd" d="M41 70C57.5685 70 71 56.5685 71 40C71 23.4315 57.5685 10 41 10C24.4315 10 11 23.4315 11 40C11 56.5685 24.4315 70 41 70Z" fill="white"/>
</mask>
<g mask="url(#mask0_19835_173)">
<path d="M13.714 32.875H67.536" stroke="#9AD2FF" stroke-width="4" stroke-linecap="square"/>
<path d="M13.714 48.625H67.536" stroke="#9AD2FF" stroke-width="4" stroke-linecap="square"/>
<path d="M40.25 14.5C40.25 14.5 30.2878 26.0775 30.5035 40.75C30.7191 55.4225 40.25 65.5 40.25 65.5" stroke="#9AD2FF" stroke-width="4" stroke-linecap="round" stroke-linejoin="round"/>
<path d="M41 14.5C41 14.5 50.9622 26.0775 50.7465 40.75C50.5309 55.4225 41 65.5 41 65.5" stroke="#9AD2FF" stroke-width="4" stroke-linecap="round" stroke-linejoin="round"/>
</g>
<path fill-rule="evenodd" clip-rule="evenodd" d="M51.1947 29.0278C51.3947 28.9123 51.6152 28.8406 51.8457 28.8261C52.8622 28.7621 55.7981 28.678 56.4348 29.7809C57.0716 30.8838 55.5299 33.3837 54.9662 34.2314C54.8384 34.4235 54.6661 34.5784 54.4663 34.6938L48.3905 38.2016L49.2344 55.302C49.2462 55.5414 49.1251 55.7679 48.9195 55.8911L47.6702 56.6393C47.5056 56.7379 47.3059 56.7586 47.1245 56.696L46.1777 56.369C46.0191 56.3143 45.8879 56.2002 45.8115 56.0508L39.3535 43.4192L32.9844 47.0964L32.2975 51.7678C32.2499 52.0912 31.9695 52.3288 31.6427 52.3226L31.1447 52.3132C30.8929 52.3084 30.6665 52.1583 30.5639 51.9282L28.7742 47.9122C27.5441 47.9515 26.3892 47.8306 26.0793 47.294C25.7698 46.7579 26.243 45.7021 26.8931 44.6611L24.3296 41.1301C24.1816 40.9263 24.1649 40.6552 24.2867 40.4347L24.5275 39.9987C24.6855 39.7126 25.0315 39.5886 25.3353 39.709L29.6975 41.4392L36.078 37.7555L28.4193 25.9267C28.3281 25.7858 28.295 25.6152 28.3268 25.4504L28.5171 24.4669C28.5535 24.2786 28.6713 24.116 28.839 24.0228L30.1116 23.315C30.3211 23.1984 30.5778 23.2068 30.7792 23.3368L45.077 32.5599L51.1947 29.0278Z" fill="#535353"/>
<mask id="mask1_19835_173" style="mask-type:luminance" maskUnits="userSpaceOnUse" x="24" y="23" width="33" height="34">
<path fill-rule="evenodd" clip-rule="evenodd" d="M51.1947 29.0278C51.3947 28.9123 51.6152 28.8406 51.8457 28.8261C52.8622 28.7621 55.7981 28.678 56.4348 29.7809C57.0716 30.8838 55.5299 33.3837 54.9662 34.2314C54.8384 34.4235 54.6661 34.5784 54.4663 34.6938L48.3905 38.2016L49.2344 55.302C49.2462 55.5414 49.1251 55.7679 48.9195 55.8911L47.6702 56.6393C47.5056 56.7379 47.3059 56.7586 47.1245 56.696L46.1777 56.369C46.0191 56.3143 45.8879 56.2002 45.8115 56.0508L39.3535 43.4192L32.9844 47.0964L32.2975 51.7678C32.2499 52.0912 31.9695 52.3288 31.6427 52.3226L31.1447 52.3132C30.8929 52.3084 30.6665 52.1583 30.5639 51.9282L28.7742 47.9122C27.5441 47.9515 26.3892 47.8306 26.0793 47.294C25.7698 46.7579 26.243 45.7021 26.8931 44.6611L24.3296 41.1301C24.1816 40.9263 24.1649 40.6552 24.2867 40.4347L24.5275 39.9987C24.6855 39.7126 25.0315 39.5886 25.3353 39.709L29.6975 41.4392L36.078 37.7555L28.4193 25.9267C28.3281 25.7858 28.295 25.6152 28.3268 25.4504L28.5171 24.4669C28.5535 24.2786 28.6713 24.116 28.839 24.0228L30.1116 23.315C30.3211 23.1984 30.5778 23.2068 30.7792 23.3368L45.077 32.5599L51.1947 29.0278Z" fill="white"/>
</mask>
<g mask="url(#mask1_19835_173)">
<rect x="45.5361" y="30.7839" width="1.30853" height="12.4084" transform="rotate(60 45.5361 30.7839)" fill="#393940"/>
<path fill-rule="evenodd" clip-rule="evenodd" d="M48.9194 55.8911C49.1251 55.7679 49.2462 55.5415 49.2344 55.302L48.3629 37.6426L39.1265 42.9752L45.8114 56.0508C45.8878 56.2002 46.0191 56.3143 46.1777 56.369L47.1245 56.696C47.3058 56.7587 47.5056 56.7379 47.6701 56.6393L48.9194 55.8911Z" fill="#393940"/>
<path opacity="0.4" fill-rule="evenodd" clip-rule="evenodd" d="M28.8366 47.8013L28.7476 47.8527L30.5638 51.9282C30.6664 52.1584 30.8928 52.3084 31.1447 52.3132L31.6426 52.3226C31.9694 52.3288 32.2498 52.0912 32.2974 51.7678L33.023 46.8334L32.56 47.1007C32.4167 47.1834 32.2626 47.2452 32.1011 47.2813C31.551 47.4041 30.1548 47.6951 28.8366 47.8013Z" fill="#393940"/>
<path fill-rule="evenodd" clip-rule="evenodd" d="M39.2483 43.2134L48.3777 37.9426L48.4769 39.9539L40.956 46.5538L39.2483 43.2134Z" fill="#393940"/>
<path fill-rule="evenodd" clip-rule="evenodd" d="M57.4824 32.9524L27.6914 50.1523C27.6914 50.1523 26.8124 48.5636 26.0794 47.2939C26.0705 47.2786 26.0621 47.263 26.0542 47.2473C27.4057 47.345 30.127 47.2351 32.7662 45.7114L53.3907 33.8038C55.6823 32.4807 56.2436 30.7674 56.5528 30.0309C57.0313 31.316 57.4824 32.9524 57.4824 32.9524Z" fill="#393940"/>
</g>
<defs>
<filter id="filter0_d_19835_173" x="8" y="23" width="66" height="66" filterUnits="userSpaceOnUse" color-interpolation-filters="sRGB">
<feFlood flood-opacity="0" result="BackgroundImageFix"/>
<feColorMatrix in="SourceAlpha" type="matrix" values="0 0 0 0 0 0 0 0 0 0 0 0 0 0 0 0 0 0 127 0" result="hardAlpha"/>
<feOffset dy="8"/>
<feGaussianBlur stdDeviation="5.5"/>
<feColorMatrix type="matrix" values="0 0 0 0 0.215686 0 0 0 0 0.407843 0 0 0 0 0.556863 0 0 0 0.25 0"/>
<feBlend mode="normal" in2="BackgroundImageFix" result="effect1_dropShadow_19835_173"/>
<feBlend mode="normal" in="SourceGraphic" in2="effect1_dropShadow_19835_173" result="shape"/>
</filter>
<filter id="filter1_d_19835_173" x="0" y="0" width="82" height="82" filterUnits="userSpaceOnUse" color-interpolation-filters="sRGB">
<feFlood flood-opacity="0" result="BackgroundImageFix"/>
<feColorMatrix in="SourceAlpha" type="matrix" values="0 0 0 0 0 0 0 0 0 0 0 0 0 0 0 0 0 0 127 0" result="hardAlpha"/>
<feOffset dy="1"/>
<feGaussianBlur stdDeviation="5.5"/>
<feColorMatrix type="matrix" values="0 0 0 0 0.215686 0 0 0 0 0.407843 0 0 0 0 0.556863 0 0 0 0.3 0"/>
<feBlend mode="normal" in2="BackgroundImageFix" result="effect1_dropShadow_19835_173"/>
<feBlend mode="normal" in="SourceGraphic" in2="effect1_dropShadow_19835_173" result="shape"/>
</filter>
</defs>
</svg>
