<svg width="140" height="220" xmlns="http://www.w3.org/2000/svg" shape-rendering="geometricPrecision" text-rendering="geometricPrecision" image-rendering="optimizeQuality" fill-rule="evenodd" clip-rule="evenodd" viewBox="0 0 441 512.398">
  <path fill="#79C4FF" fill-rule="nonzero" d="M102.778 354.886c-5.727 0-10.372-4.646-10.372-10.373 0-5.727 4.645-10.372 10.372-10.372h85.568a148.107 148.107 0 00-7.597 20.745h-77.971zm0-145.37c-5.727 0-10.372-4.645-10.372-10.372s4.645-10.372 10.372-10.372h151.288c5.727 0 10.372 4.645 10.372 10.372s-4.645 10.372-10.372 10.372H102.778zm0 72.681c-5.727 0-10.372-4.645-10.372-10.372s4.645-10.372 10.372-10.372H246.05c2.83 0 5.395 1.134 7.265 2.97a149.435 149.435 0 00-25.876 17.774H102.778z"/>
  <path fill="#2196F3" d="M324.263 278.924c32.23 0 61.418 13.067 82.544 34.193C427.933 334.241 441 363.429 441 395.659c0 32.236-13.067 61.419-34.193 82.545-21.126 21.125-50.31 34.194-82.544 34.194-32.232 0-61.419-13.069-82.543-34.194-21.125-21.126-34.194-50.313-34.194-82.545s13.069-61.416 34.194-82.542c21.126-21.126 50.309-34.193 82.543-34.193zM60.863 0h174.809a10.36 10.36 0 018.279 4.123l110.107 119.12a10.291 10.291 0 012.745 7.011h.053v119.818a149.441 149.441 0 00-20.752-3.111v-92.213h-43.666v-.041h-.161c-22.046-.349-39.33-6.223-51.694-16.785-12.849-10.978-20.063-26.614-21.504-46.038a10.16 10.16 0 01-.095-1.405V20.752H60.863c-11.02 0-21.049 4.516-28.321 11.79-7.274 7.272-11.79 17.301-11.79 28.321v338.276c0 11.014 4.521 21.037 11.796 28.311 7.278 7.28 17.31 11.801 28.315 11.801h120.749a148.084 148.084 0 008.116 20.752H60.863c-16.73 0-31.958-6.849-42.987-17.881C6.852 431.099 0 415.882 0 399.139V60.863C0 44.114 6.842 28.894 17.87 17.87 28.894 6.842 44.114 0 60.863 0zm178.873 29.982v60.433c1.021 13.737 5.819 24.536 14.302 31.784 8.667 7.403 21.488 11.544 38.4 11.835v-.038h43.442L239.736 29.982zm119.408 313.927l16.871 16.871c3.288 3.289 3.288 8.84 0 12.128l-22.748 22.749 22.746 22.747c3.294 3.293 3.294 8.834 0 12.128l-16.874 16.874c-3.294 3.293-8.79 3.337-12.126 0l-22.748-22.748-22.754 22.754c-3.288 3.287-8.789 3.337-12.126 0l-16.873-16.871c-3.336-3.337-3.336-8.791 0-12.128l22.754-22.754-22.75-22.749c-3.336-3.337-3.336-8.79 0-12.127l16.875-16.874c3.336-3.337 8.834-3.294 12.128 0l22.75 22.75 22.747-22.75c3.337-3.337 8.88-3.247 12.128 0z"/>
</svg>